<?xml version="1.0" encoding="utf-8"?>
<svg width="149px" height="83px" viewBox="0 0 149 83" version="1.1" xmlns:xlink="http://www.w3.org/1999/xlink" xmlns="http://www.w3.org/2000/svg">
  <defs>
    <linearGradient x1="0.19752468" y1="0.2606148" x2="0.18699722" y2="1" id="gradient_1">
      <stop offset="0" stop-color="#FF7B36" />
      <stop offset="1" stop-color="#F80505" />
    </linearGradient>
    <linearGradient x1="0.5" y1="0" x2="0.5" y2="1" id="gradient_2">
      <stop offset="0" stop-color="#FF7B36" />
      <stop offset="1" stop-color="#F80505" />
    </linearGradient>
    <linearGradient x1="0.8676192" y1="0" x2="0.8676192" y2="2.6287436" id="gradient_3">
      <stop offset="0" stop-color="#FFFAF5" />
      <stop offset="1" stop-color="#722901" />
    </linearGradient>
    <linearGradient x1="0.5" y1="0" x2="0.5" y2="1" id="gradient_4">
      <stop offset="0" stop-color="#F80505" />
      <stop offset="1" stop-color="#FF7B36" />
    </linearGradient>
    <linearGradient x1="0.38477957" y1="-0.28357336" x2="0.44792587" y2="1.6505517" id="gradient_5">
      <stop offset="0" stop-color="#FF7B36" />
      <stop offset="1" stop-color="#F80505" />
    </linearGradient>
    <linearGradient x1="0.5" y1="0" x2="0.04509094" y2="1" id="gradient_6">
      <stop offset="0" stop-color="#FF7B36" />
      <stop offset="1" stop-color="#F80505" />
    </linearGradient>
    <linearGradient x1="1.1263837" y1="-0.12002977" x2="0.1877307" y2="0.8133283" id="gradient_7">
      <stop offset="0" stop-color="#FF7B36" />
      <stop offset="0.7127025" stop-color="#FB3D1C" />
      <stop offset="1" stop-color="#FA2A14" />
    </linearGradient>
    <filter filterUnits="userSpaceOnUse" color-interpolation-filters="sRGB" id="filter_1">
      <feFlood flood-opacity="0" result="BackgroundImageFix" />
      <feColorMatrix in="SourceAlpha" type="matrix" values="0 0 0 0 0 0 0 0 0 0 0 0 0 0 0 0 0 0 127 0" />
      <feOffset dx="0" dy="2" />
      <feGaussianBlur stdDeviation="18" />
      <feColorMatrix type="matrix" values="0 0 0 0 0 0 0 0 0 0 0 0 0 0 0 0 0 0 0.49803922 0" />
      <feBlend mode="normal" in2="BackgroundImageFix" result="effect0_dropShadow" />
      <feBlend mode="normal" in="SourceGraphic" in2="effect0_dropShadow" result="shape" />
    </filter>
    <filter filterUnits="userSpaceOnUse" color-interpolation-filters="sRGB" id="filter_2">
      <feFlood flood-opacity="0" result="BackgroundImageFix" />
      <feColorMatrix in="SourceAlpha" type="matrix" values="0 0 0 0 0 0 0 0 0 0 0 0 0 0 0 0 0 0 127 0" />
      <feOffset dx="0" dy="2" />
      <feGaussianBlur stdDeviation="2" />
      <feColorMatrix type="matrix" values="0 0 0 0 0 0 0 0 0 0 0 0 0 0 0 0 0 0 0.49803922 0" />
      <feBlend mode="normal" in2="BackgroundImageFix" result="effect0_dropShadow" />
      <feBlend mode="normal" in="SourceGraphic" in2="effect0_dropShadow" result="shape" />
    </filter>
    <filter filterUnits="userSpaceOnUse" color-interpolation-filters="sRGB" id="filter_3">
      <feFlood flood-opacity="0" result="BackgroundImageFix" />
      <feColorMatrix in="SourceAlpha" type="matrix" values="0 0 0 0 0 0 0 0 0 0 0 0 0 0 0 0 0 0 127 0" />
      <feOffset dx="0" dy="2" />
      <feGaussianBlur stdDeviation="22" />
      <feColorMatrix type="matrix" values="0 0 0 0 0 0 0 0 0 0 0 0 0 0 0 0 0 0 0.49803922 0" />
      <feBlend mode="normal" in2="BackgroundImageFix" result="effect0_dropShadow" />
      <feBlend mode="normal" in="SourceGraphic" in2="effect0_dropShadow" result="shape" />
    </filter>
    <filter filterUnits="userSpaceOnUse" color-interpolation-filters="sRGB" id="filter_4">
      <feFlood flood-opacity="0" result="BackgroundImageFix" />
      <feBlend mode="normal" in="SourceGraphic" in2="BackgroundImageFix" result="shape" />
      <feColorMatrix in="SourceAlpha" type="matrix" values="0 0 0 0 0 0 0 0 0 0 0 0 0 0 0 0 0 0 127 0" result="hardAlpha" />
      <feOffset dx="15" dy="-8" />
      <feGaussianBlur stdDeviation="6" />
      <feComposite in2="hardAlpha" operator="arithmetic" k2="-1" k3="1" />
      <feColorMatrix type="matrix" values="0 0 0 0 1 0 0 0 0 1 0 0 0 0 1 0 0 0 0.45882353 0" />
      <feBlend mode="normal" in2="shape" result="effect0_innerShadow" />
      <feColorMatrix in="SourceAlpha" type="matrix" values="0 0 0 0 0 0 0 0 0 0 0 0 0 0 0 0 0 0 127 0" result="hardAlpha" />
      <feOffset dx="-8" dy="-4" />
      <feGaussianBlur stdDeviation="5" />
      <feComposite in2="hardAlpha" operator="arithmetic" k2="-1" k3="1" />
      <feColorMatrix type="matrix" values="0 0 0 0 1 0 0 0 0 1 0 0 0 0 1 0 0 0 0.4392157 0" />
      <feBlend mode="normal" in2="effect0_innerShadow" result="effect1_innerShadow" />
    </filter>
    <filter filterUnits="userSpaceOnUse" color-interpolation-filters="sRGB" id="filter_5">
      <feFlood flood-opacity="0" result="BackgroundImageFix" />
      <feColorMatrix in="SourceAlpha" type="matrix" values="0 0 0 0 0 0 0 0 0 0 0 0 0 0 0 0 0 0 127 0" />
      <feOffset dx="0" dy="2" />
      <feGaussianBlur stdDeviation="7" />
      <feColorMatrix type="matrix" values="0 0 0 0 0 0 0 0 0 0 0 0 0 0 0 0 0 0 0.25882354 0" />
      <feBlend mode="normal" in2="BackgroundImageFix" result="effect0_dropShadow" />
      <feBlend mode="normal" in="SourceGraphic" in2="effect0_dropShadow" result="shape" />
    </filter>
    <filter filterUnits="userSpaceOnUse" color-interpolation-filters="sRGB" id="filter_6">
      <feFlood flood-opacity="0" result="BackgroundImageFix" />
      <feColorMatrix in="SourceAlpha" type="matrix" values="0 0 0 0 0 0 0 0 0 0 0 0 0 0 0 0 0 0 127 0" />
      <feOffset dx="0" dy="2" />
      <feGaussianBlur stdDeviation="9" />
      <feColorMatrix type="matrix" values="0 0 0 0 0 0 0 0 0 0 0 0 0 0 0 0 0 0 0.1882353 0" />
      <feBlend mode="normal" in2="BackgroundImageFix" result="effect0_dropShadow" />
      <feBlend mode="normal" in="SourceGraphic" in2="effect0_dropShadow" result="shape" />
    </filter>
    <filter filterUnits="userSpaceOnUse" color-interpolation-filters="sRGB" id="filter_7">
      <feFlood flood-opacity="0" result="BackgroundImageFix" />
      <feColorMatrix in="SourceAlpha" type="matrix" values="0 0 0 0 0 0 0 0 0 0 0 0 0 0 0 0 0 0 127 0" />
      <feOffset dx="0" dy="2" />
      <feGaussianBlur stdDeviation="18" />
      <feColorMatrix type="matrix" values="0 0 0 0 0 0 0 0 0 0 0 0 0 0 0 0 0 0 0.34117648 0" />
      <feBlend mode="normal" in2="BackgroundImageFix" result="effect0_dropShadow" />
      <feBlend mode="normal" in="SourceGraphic" in2="effect0_dropShadow" result="shape" />
    </filter>
    <filter filterUnits="userSpaceOnUse" color-interpolation-filters="sRGB" id="filter_8">
      <feFlood flood-opacity="0" result="BackgroundImageFix" />
      <feColorMatrix in="SourceAlpha" type="matrix" values="0 0 0 0 0 0 0 0 0 0 0 0 0 0 0 0 0 0 127 0" />
      <feOffset dx="0" dy="2" />
      <feGaussianBlur stdDeviation="6.5" />
      <feColorMatrix type="matrix" values="0 0 0 0 0 0 0 0 0 0 0 0 0 0 0 0 0 0 0.18039216 0" />
      <feBlend mode="normal" in2="BackgroundImageFix" result="effect0_dropShadow" />
      <feBlend mode="normal" in="SourceGraphic" in2="effect0_dropShadow" result="shape" />
    </filter>
    <path d="M43.1571 3.58348C43.1571 3.58348 41.9151 -0.339458 37.9367 0.0237483C33.9583 0.386955 27.4155 8.88351 27.4155 8.88351L18.3974 19.2858C18.3974 19.2858 15.8695 19.1488 13.2158 19.6813C10.5621 20.2137 -0.273268 23.3644 0.0052747 28.462C-0.00346549 29.957 2.02246 30.9537 2.02246 30.9537C2.02246 30.9537 3.28349 26.6149 15.3121 23.4783C5.916 35.5628 3.16948 48.0008 3.16948 48.0008C3.16948 48.0008 1.76067 52.3317 4.94935 52.8659C6.93544 53.2754 8.07399 50.2555 8.07399 50.2555C8.07399 50.2555 5.00482 51.8835 5.66129 49.7809C8.37097 41.102 24.109 21.0036 24.0928 21.0261C27.8373 20.1927 42.8406 19.6813 42.8406 19.6813L42.8406 19.2858C42.8406 19.2858 39.5455 18.3055 26.8614 17.7037C35.0337 5.81555 43.1571 3.58348 43.1571 3.58348Z" transform="translate(10.609802 12.158447)" id="path_1" />
    <path d="M29.2296 25.6554C29.2296 25.6554 27.9793 21.7005 26.5401 21.2651C25.1009 20.8297 20.5902 23.1394 19.0645 23.9942C17.5389 24.849 15.8255 26.1304 14.7138 26.9606C13.602 27.7909 11.6003 29.3911 10.8376 30.3226C10.0749 31.2542 8.11747 33.2626 7.39649 34.4756C6.67552 35.6887 5.85574 36.9086 5.73528 37.2444C5.61481 37.5801 5.50098 38.0741 5.57707 38.3123C5.65316 38.5504 5.73823 38.8045 6.13081 38.5891C6.52338 38.3738 6.73147 38.2146 6.92186 38.0749C7.11225 37.9353 9.4321 36.5374 9.88832 36.1764C10.3445 35.8154 15.5567 32.1858 16.0586 31.7465C16.5604 31.3072 18.1825 30.2231 18.3921 30.0062C18.6019 29.7893 20.8508 27.433 21.2795 26.9606C21.7082 26.4883 23.395 25.4043 23.7318 25.1808C24.0686 24.9572 25.2093 24.1667 25.9467 24.7853C26.6842 25.4038 26.8973 25.7884 27.0938 26.0905C27.2902 26.3926 27.9397 27.3532 27.7266 27.9495C27.5135 28.5456 26.9423 28.9733 26.7773 29.0965C26.6124 29.2197 23.9068 31.3097 22.5847 33.2891C21.2627 35.2684 20.7961 36.1862 20.6467 36.4928C20.4972 36.7995 19.0616 39.98 20.4885 39.1824C21.9153 38.3847 23.3038 37.34 23.5736 37.1257C23.8433 36.9113 27.1136 34.4509 27.2915 34.3174C27.4694 34.1839 30.0362 32.4653 30.258 32.0629C30.4798 31.6606 31.6413 29.7986 31.8006 29.492C31.9599 29.1854 40.2399 15.7092 44.3387 10.8628C48.4376 6.01633 53.1873 0.431281 54.3456 0.144025C55.504 -0.14323 58.1978 -0.0649235 59.2897 0.974628C60.3816 2.01418 60.5551 2.75449 60.5551 2.75449C60.5551 2.75449 59.3447 2.52616 57.5098 4.05973C55.675 5.59329 53.5303 7.68018 52.3285 9.162C51.1266 10.6438 47.4547 15.4777 46.5537 16.677C45.6528 17.8763 42.4007 22.4912 42.4007 22.4912L37.4171 30.0062C37.4171 30.0062 48.0398 20.3544 51.3 19.8807C54.5604 19.4071 56.9796 20.059 57.0352 22.8472C57.0908 25.6353 54.298 29.5811 53.2382 30.8763C52.1782 32.1715 46.5317 39.1739 43.785 40.5667C41.0384 41.9595 39.5634 42.7652 37.1006 42.3861C34.6379 42.0071 33.62 40.5667 33.62 40.5667C33.62 40.5667 32.9125 39.7498 33.1454 38.5891C35.6812 41.6341 39.6917 38.0945 40.2648 37.6398C40.838 37.1851 46.2949 32.1045 48.8873 28.2659C51.4798 24.4272 53.3192 20.9737 50.2717 23.1636C38.2622 30.7106 32.5125 37.6398 32.5125 37.6398C32.5125 37.6398 30.0263 40.7222 31.8006 42.3861C33.5748 44.05 28.7854 42.5228 28.2408 41.0414C27.6962 39.5601 28.003 37.4894 28.6363 36.1764C29.987 33.7077 28.4536 35.5961 26.7773 37.1257C25.1011 38.6552 21.7541 41.0414 21.7541 41.0414C21.7541 41.0414 17.5971 44.3134 15.1488 40.5667C13.7965 36.7005 17.1265 32.8935 17.1265 32.8935C17.1265 32.8935 6.16425 43.1757 3.0457 42.3861C-0.0728564 41.5965 0.000146438 38.3123 0.000146438 38.3123C0.000146438 38.3123 0.0791723 36.0139 1.06807 34.3174C2.05696 32.6209 2.30592 32.2925 4.15316 30.0062C6.00039 27.7199 14.1922 20.6709 19.6182 19.8807C33.2026 17.2222 29.2296 25.6554 29.2296 25.6554" transform="translate(31.103027 13.580688)" id="path_2" />
    <path d="M32.8374 2.5625C30.2979 -1.00403 26.8274 0.195071 26.8254 0.189322C24.0145 1.84846 22.4423 3.99279 21.8021 4.61925C21.1618 5.2457 13.9333 15.2602 13.6147 15.6941C13.2961 16.1279 4.42189 29.2341 3.4497 30.7637C3.3437 30.9305 3.19613 31.1446 3.02125 31.3983C1.59232 33.4712 -1.6601 38.1894 1.03699 41.364C3.77286 44.5842 11.1472 37.7819 13.5149 35.5979C13.767 35.3653 13.9624 35.1851 14.0893 35.075C14.0646 35.2385 14.0192 35.4486 13.9659 35.6949C13.5649 37.5488 12.7208 41.4517 16.9372 42.946C21.7135 44.6387 29.4947 38.7966 38.2956 30.7637C39.1732 29.9627 41.6574 27.3621 41.6574 27.3621L41.3807 27.0458C41.3807 27.0458 33.643 32.7832 30.6619 34.9564C27.6807 37.1296 24.9955 38.4287 21.2879 39.7028C16.1538 40.8988 19.845 36.0253 20.8133 34.9564C22.7672 34.8212 23.7459 34.7341 26.8254 33.3347C29.9048 31.9351 32.8182 29.5781 35.7642 27.0458C36.6733 26.2643 37.7183 25.4519 38.2956 24.633C39.5888 22.7983 38.7575 20.6787 35.7642 19.8076C30.0461 18.1436 17.3292 30.0858 16.9372 30.4869C16.5451 30.8879 7.14785 39.5837 5.98103 38.4366C4.81421 37.2895 6.53819 34.5477 12.2699 25.8984C27.1306 3.47345 30.0604 2.62835 32.8374 2.5625ZM32.2835 23.3275C38.369 20.5082 38.7976 22.4145 27.9328 30.1701C17.3436 37.8705 24.8723 27.1221 32.2835 23.3275Z" transform="translate(82.83014 13.574951)" id="path_3" />
    <path d="M88.7797 5.78466C88.7732 6.05527 81.4718 4.52578 72.6022 3.68837C65.9927 3.06433 58.4707 3.0942 52.6677 3.09508C46.3444 3.21066 36.4842 4.52386 31.6653 5.78466C13.4944 10.3036 -5.42835 21.2173 9.63458 27.064C9.99511 28.114 4.72684 27.1475 1.84264 24.2556C-0.331464 22.0758 -0.881613 18.5796 1.84264 15.2773C8.18095 7.59419 25.7226 1.65141 36.9654 0.801026C48.2081 -0.049357 53.1723 -0.464659 65.918 0.801025C78.6637 2.06671 88.8115 4.43857 88.7797 5.78466Z" transform="translate(0 5.2209473)" id="path_4" />
  </defs>
  <g id="Group">
    <path d="M32.4251 15.5837C32.4251 15.5837 11.7164 28.588 13.7562 60.4362C13.4652 77.0285 5.60835 82.0319 5.60835 82.0319C5.60835 82.0319 10.6052 72.9794 10.592 67.8325C10.5788 62.6857 10.0321 59.6365 8.6539 57.984C7.27573 56.3315 4.14082 52.9602 0.110524 56.481C-0.34452 56.3315 0.572818 53.2148 3.47249 53.3959C6.37216 53.5769 9.23514 55.2026 11.0666 57.0347C9.0516 53.7141 7.13853 52.3167 2.99785 51.8929C6.76768 51.3602 9.18904 52.7081 11.0666 54.2265C7.28336 48.415 7.52352 44.333 8.6539 41.0951C10.0383 44.0984 10.592 44.7734 10.592 44.7734C10.592 44.7734 10.8022 30.0069 13.7562 26.1838C13.9887 29.6905 15.536 31.9189 15.536 31.9189C15.536 31.9189 13.7442 22.2271 19.9263 17.1262C22.0444 15.2549 28.6278 12.5399 31.7525 10.0859C35.8933 6.90618 37.8832 0 37.8832 0C37.8832 0 42.476 3.53795 40.0981 10.0859C37.7202 16.6338 35.9691 17.4932 35.4704 17.9964C34.9718 18.4995 34.2297 18.9328 33.651 19.3412C34.1706 19.4082 34.3044 19.3658 34.4816 19.3412C34.6589 19.3166 37.0411 19.0644 38.9906 18.3524C35.4423 22.5119 31.7748 26.4461 28.9443 28.5569C31.0317 27.4432 33.1156 25.9435 35.4704 25.6696C31.2835 34.582 25.8148 39.7611 24.5144 41.0951C27.1576 40.0628 29.0362 37.83 29.854 37.298C28.352 43.2847 26.9283 46.8825 24.5144 49.4011C22.1005 51.9197 14.6492 58.0951 14.5472 61.3855C14.3343 57.1165 13.6778 48.1721 18.7397 36.2301C23.8017 24.2881 32.4251 15.5837 32.4251 15.5837Z" transform="translate(108.01514 0)" id="New-shape-6" fill="#FB3719" fill-rule="evenodd" stroke="none" filter="url(#filter_1)" />
    <path d="M18.8104 15.5837C18.8104 15.5837 -1.89844 28.588 0.141371 60.4363C-0.422479 43.568 1.92119 31.9189 1.92119 31.9189C1.92119 31.9189 0.129339 22.2271 6.31153 17.1263C8.42958 15.255 15.0131 12.5399 18.1378 10.0859C22.2785 6.90619 24.2685 0 24.2685 0C24.2685 0 28.8613 3.53796 26.4834 10.0859C24.1055 16.6339 22.3544 17.4933 21.8558 17.9964C21.3571 18.4996 20.615 18.9328 20.0363 19.3412C20.5559 19.4082 20.6897 19.3658 20.8669 19.3412C21.0442 19.3166 23.4264 19.0644 25.3759 18.3524C21.8276 22.5119 18.1601 26.4462 15.3295 28.557C10.8703 30.9893 0.062946 48.1722 5.12494 36.2302C10.1869 24.2882 18.8104 15.5837 18.8104 15.5837Z" transform="translate(121.62988 0)" id="New-shape-13" fill="url(#gradient_1)" fill-rule="evenodd" stroke="none" filter="url(#filter_1)" />
    <path d="M3.33025 0C3.33025 0 3.31721 3.3079 5.18282 5.8538C7.04843 8.39968 5.18282 14.5949 5.18282 14.5949C5.18282 14.5949 3.05776 22.3887 3.12023 27.6856C2.65709 24.0371 -0.317557 23.0553 0.0278308 18.8666C0.556298 2.63232 3.33025 0 3.33025 0Z" transform="translate(118.471924 26.183716)" id="New-shape-7" fill="url(#gradient_2)" fill-rule="evenodd" stroke="none" filter="url(#filter_2)" />
    <g id="New-shape-2" filter="url(#filter_3)">
      <use stroke="none" fill="url(#gradient_3)" xlink:href="#path_1" fill-rule="evenodd" filter="url(#filter_4)" />
    </g>
    <g id="New-shape-4" filter="url(#filter_3)">
      <use stroke="none" fill="url(#gradient_3)" xlink:href="#path_2" fill-rule="evenodd" filter="url(#filter_4)" />
    </g>
    <g id="New-shape-5-Difference" filter="url(#filter_3)">
      <use stroke="none" fill="url(#gradient_3)" xlink:href="#path_3" fill-rule="evenodd" filter="url(#filter_4)" />
    </g>
    <g id="New-shape-5" filter="url(#filter_3)">
      <use stroke="none" fill="url(#gradient_3)" xlink:href="#path_4" fill-rule="evenodd" filter="url(#filter_4)" />
    </g>
    <path d="M0.889941 0C0.889941 0 1.65647 2.11516 2.73672 3.59137C3.81696 5.06757 5.23203 5.80301 5.93288 9.85632C5.85768 13.8522 5.93288 17.9568 5.93288 17.9568L3.21614 13.2083C3.21614 13.2083 -0.789304 7.10617 0.139829 2.79328C0.442986 1.14682 0.889941 0 0.889941 0Z" transform="translate(115.78992 40.97644)" id="New-shape-8" fill="url(#gradient_4)" fill-rule="evenodd" stroke="none" filter="url(#filter_2)" />
    <path d="M0.889941 0C0.889941 0 1.65647 2.11516 2.73672 3.59137C3.81696 5.06757 5.23203 5.80301 5.93288 9.85632C5.85768 13.8522 5.93288 17.9568 5.93288 17.9568L3.21614 13.2083C3.21614 13.2083 -0.789304 7.10617 0.139829 2.79328C0.442986 1.14682 0.889941 0 0.889941 0Z" transform="translate(115.78992 40.97644)" id="New-shape-11" fill="url(#gradient_2)" fill-rule="evenodd" stroke="none" filter="url(#filter_5)" />
    <path d="M0 0.177858C0 0.177858 7.08001 -0.12351 10.6001 10.7779C10.63 10.4004 10.914 8.3443 10.6001 6.82264C10.0217 4.01903 8.07537 1.09588 3.44107 0.177861C1.49257 -0.222324 0 0.177858 0 0.177858Z" transform="translate(111.063416 51.714966)" id="New-shape-9" fill="url(#gradient_5)" fill-rule="evenodd" stroke="none" filter="url(#filter_6)" />
    <path d="M0 24.9181C3.53275 22.03 16.3568 11.0144 20.7255 0C11.0711 2.4958 0.602268 13.1854 0 24.9181Z" transform="translate(123.0083 25.076294)" id="New-shape-12" fill="url(#gradient_6)" fill-rule="evenodd" stroke="none" filter="url(#filter_7)" />
    <path d="M16.0116 0C16.0116 0 13.8191 10.7894 7.0871 15.8052C0.961718 21.2018 0.231368 24.5226 0.231368 24.5226C0.231368 24.5226 -0.28921 18.8211 0.231368 14.9091C0.751947 10.997 4.4919 6.59213 5.91069 5.49924C7.32948 4.40636 8.92505 4.34238 10.5758 3.99204C12.2266 3.64171 16.0116 0 16.0116 0Z" transform="translate(122.35266 36.783813)" id="New-shape-10" fill="url(#gradient_7)" fill-rule="evenodd" stroke="none" filter="url(#filter_8)" />
  </g>
</svg>