<?xml version="1.0" encoding="utf-8"?>
<svg width="74px" height="53px" viewBox="0 0 385 213" version="1.1" xmlns:xlink="http://www.w3.org/1999/xlink" xmlns="http://www.w3.org/2000/svg">
  <defs>
    <linearGradient x1="0.19752468" y1="0.2606148" x2="0.18699722" y2="1" id="gradient_1">
      <stop offset="0" stop-color="#FF7B36" />
      <stop offset="1" stop-color="#F80505" />
    </linearGradient>
    <linearGradient x1="0.5" y1="0" x2="0.5" y2="1" id="gradient_2">
      <stop offset="0" stop-color="#FF7B36" />
      <stop offset="1" stop-color="#F80505" />
    </linearGradient>
    <linearGradient x1="0.8676192" y1="0" x2="0.8676192" y2="2.6287436" id="gradient_3">
      <stop offset="0" stop-color="#FFFAF5" />
      <stop offset="1" stop-color="#722901" />
    </linearGradient>
    <linearGradient x1="0.5" y1="0" x2="0.5" y2="1" id="gradient_4">
      <stop offset="0" stop-color="#F80505" />
      <stop offset="1" stop-color="#FF7B36" />
    </linearGradient>
    <linearGradient x1="0.38477957" y1="-0.28357336" x2="0.44792587" y2="1.6505517" id="gradient_5">
      <stop offset="0" stop-color="#FF7B36" />
      <stop offset="1" stop-color="#F80505" />
    </linearGradient>
    <linearGradient x1="0.5" y1="0" x2="0.04509094" y2="1" id="gradient_6">
      <stop offset="0" stop-color="#FF7B36" />
      <stop offset="1" stop-color="#F80505" />
    </linearGradient>
    <linearGradient x1="1.1263837" y1="-0.12002977" x2="0.1877307" y2="0.8133283" id="gradient_7">
      <stop offset="0" stop-color="#FF7B36" />
      <stop offset="0.7127025" stop-color="#FB3D1C" />
      <stop offset="1" stop-color="#FA2A14" />
    </linearGradient>
    <filter filterUnits="userSpaceOnUse" color-interpolation-filters="sRGB" id="filter_1">
      <feFlood flood-opacity="0" result="BackgroundImageFix" />
      <feColorMatrix in="SourceAlpha" type="matrix" values="0 0 0 0 0 0 0 0 0 0 0 0 0 0 0 0 0 0 127 0" />
      <feOffset dx="0" dy="2" />
      <feGaussianBlur stdDeviation="18" />
      <feColorMatrix type="matrix" values="0 0 0 0 0 0 0 0 0 0 0 0 0 0 0 0 0 0 0.49803922 0" />
      <feBlend mode="normal" in2="BackgroundImageFix" result="effect0_dropShadow" />
      <feBlend mode="normal" in="SourceGraphic" in2="effect0_dropShadow" result="shape" />
    </filter>
    <filter filterUnits="userSpaceOnUse" color-interpolation-filters="sRGB" id="filter_2">
      <feFlood flood-opacity="0" result="BackgroundImageFix" />
      <feBlend mode="normal" in="SourceGraphic" in2="BackgroundImageFix" result="shape" />
      <feColorMatrix in="SourceAlpha" type="matrix" values="0 0 0 0 0 0 0 0 0 0 0 0 0 0 0 0 0 0 127 0" result="hardAlpha" />
      <feOffset dx="15" dy="-8" />
      <feGaussianBlur stdDeviation="6" />
      <feComposite in2="hardAlpha" operator="arithmetic" k2="-1" k3="1" />
      <feColorMatrix type="matrix" values="0 0 0 0 1 0 0 0 0 1 0 0 0 0 1 0 0 0 0.45882353 0" />
      <feColorMatrix in="SourceAlpha" type="matrix" values="0 0 0 0 0 0 0 0 0 0 0 0 0 0 0 0 0 0 127 0" result="hardAlpha" />
      <feOffset dx="-8" dy="-4" />
      <feGaussianBlur stdDeviation="5" />
      <feComposite in2="hardAlpha" operator="arithmetic" k2="-1" k3="1" />
      <feColorMatrix type="matrix" values="0 0 0 0 1 0 0 0 0 1 0 0 0 0 1 0 0 0 0.4392157 0" />
    </filter>
    <filter filterUnits="userSpaceOnUse" color-interpolation-filters="sRGB" id="filter_3">
      <feFlood flood-opacity="0" result="BackgroundImageFix" />
      <feColorMatrix in="SourceAlpha" type="matrix" values="0 0 0 0 0 0 0 0 0 0 0 0 0 0 0 0 0 0 127 0" />
      <feOffset dx="0" dy="2" />
      <feGaussianBlur stdDeviation="2" />
      <feColorMatrix type="matrix" values="0 0 0 0 0 0 0 0 0 0 0 0 0 0 0 0 0 0 0.49803922 0" />
      <feBlend mode="normal" in2="BackgroundImageFix" result="effect0_dropShadow" />
      <feBlend mode="normal" in="SourceGraphic" in2="effect0_dropShadow" result="shape" />
    </filter>
    <filter filterUnits="userSpaceOnUse" color-interpolation-filters="sRGB" id="filter_4">
      <feFlood flood-opacity="0" result="BackgroundImageFix" />
      <feColorMatrix in="SourceAlpha" type="matrix" values="0 0 0 0 0 0 0 0 0 0 0 0 0 0 0 0 0 0 127 0" />
      <feOffset dx="0" dy="2" />
      <feGaussianBlur stdDeviation="7" />
      <feColorMatrix type="matrix" values="0 0 0 0 0 0 0 0 0 0 0 0 0 0 0 0 0 0 0.25882354 0" />
      <feBlend mode="normal" in2="BackgroundImageFix" result="effect0_dropShadow" />
      <feBlend mode="normal" in="SourceGraphic" in2="effect0_dropShadow" result="shape" />
    </filter>
    <filter filterUnits="userSpaceOnUse" color-interpolation-filters="sRGB" id="filter_5">
      <feFlood flood-opacity="0" result="BackgroundImageFix" />
      <feColorMatrix in="SourceAlpha" type="matrix" values="0 0 0 0 0 0 0 0 0 0 0 0 0 0 0 0 0 0 127 0" />
      <feOffset dx="0" dy="2" />
      <feGaussianBlur stdDeviation="9" />
      <feColorMatrix type="matrix" values="0 0 0 0 0 0 0 0 0 0 0 0 0 0 0 0 0 0 0.1882353 0" />
      <feBlend mode="normal" in2="BackgroundImageFix" result="effect0_dropShadow" />
      <feBlend mode="normal" in="SourceGraphic" in2="effect0_dropShadow" result="shape" />
    </filter>
    <filter filterUnits="userSpaceOnUse" color-interpolation-filters="sRGB" id="filter_6">
      <feFlood flood-opacity="0" result="BackgroundImageFix" />
      <feColorMatrix in="SourceAlpha" type="matrix" values="0 0 0 0 0 0 0 0 0 0 0 0 0 0 0 0 0 0 127 0" />
      <feOffset dx="0" dy="2" />
      <feGaussianBlur stdDeviation="18" />
      <feColorMatrix type="matrix" values="0 0 0 0 0 0 0 0 0 0 0 0 0 0 0 0 0 0 0.34117648 0" />
      <feBlend mode="normal" in2="BackgroundImageFix" result="effect0_dropShadow" />
      <feBlend mode="normal" in="SourceGraphic" in2="effect0_dropShadow" result="shape" />
    </filter>
    <path d="M111.541 9.26163C111.541 9.26163 108.331 -0.877343 98.0487 0.0613785C87.7664 1.0001 70.8563 22.9598 70.8563 22.9598L47.5489 49.8447C47.5489 49.8447 41.0154 49.4908 34.1568 50.8669C27.2982 52.2431 -0.70627 60.3863 0.0136326 73.561C-0.00895668 77.4249 5.22713 80.0009 5.22713 80.0009C5.22713 80.0009 8.48629 68.7872 39.5747 60.6807C15.2901 91.9134 8.19165 124.06 8.19165 124.06C8.19165 124.06 4.55051 135.253 12.7918 136.634C17.9249 137.692 20.8675 129.887 20.8675 129.887C20.8675 129.887 12.9351 134.095 14.6318 128.661C21.6351 106.23 62.3105 54.2846 62.2686 54.3427C71.9464 52.1888 110.723 50.8669 110.723 50.8669L110.723 49.8447C110.723 49.8447 102.207 47.3113 69.4243 45.7558C90.5458 15.0305 111.541 9.26163 111.541 9.26163Z" transform="translate(27.85144 31.42395)" id="path_1" />
    <path d="M75.545 66.3074C75.545 66.3074 72.3134 56.0857 68.5937 54.9604C64.8741 53.8351 53.2162 59.8047 49.273 62.0139C45.3298 64.2231 40.9015 67.5349 38.0282 69.6807C35.155 71.8267 29.9814 75.9622 28.0101 78.3699C26.0389 80.7776 20.9799 85.9684 19.1165 89.1035C17.2531 92.2387 15.1344 95.3917 14.823 96.2594C14.5117 97.127 14.2175 98.404 14.4141 99.0194C14.6108 99.6349 14.8307 100.292 15.8453 99.735C16.8599 99.1784 17.3977 98.7669 17.8898 98.4061C18.3819 98.0452 24.3776 94.4323 25.5567 93.4992C26.7358 92.5661 40.2067 83.1853 41.5039 82.0499C42.801 80.9147 46.9932 78.1127 47.5351 77.5521C48.0772 76.9914 53.8897 70.9016 54.9976 69.6807C56.1056 68.4599 60.4651 65.6584 61.3356 65.0807C62.2061 64.5029 65.1543 62.4597 67.0602 64.0584C68.9661 65.657 69.5171 66.651 70.0248 67.4318C70.5326 68.2126 72.2112 70.6954 71.6604 72.2364C71.1097 73.7773 69.6334 74.8824 69.2069 75.2009C68.7806 75.5194 61.7879 80.921 58.3711 86.0368C54.9542 91.1526 53.7484 93.5244 53.3621 94.317C52.9757 95.1097 49.2653 103.33 52.9532 101.268C56.6409 99.2068 60.2296 96.5066 60.9267 95.9526C61.6239 95.3986 70.0762 89.0397 70.536 88.6946C70.9957 88.3495 77.6297 83.9076 78.2028 82.8678C78.7761 81.828 81.778 77.0156 82.1898 76.2232C82.6014 75.4307 104.002 40.6009 114.595 28.0752C125.189 15.5494 137.464 1.11466 140.458 0.372239C143.452 -0.370183 150.414 -0.167797 153.236 2.51896C156.058 5.20573 156.507 7.11907 156.507 7.11907C156.507 7.11907 153.378 6.52895 148.636 10.4925C143.894 14.4561 138.351 19.8497 135.245 23.6795C132.138 27.5093 122.648 40.0026 120.32 43.1023C117.991 46.2019 109.586 58.1293 109.586 58.1293L96.7057 77.5521C96.7057 77.5521 124.16 52.6067 132.587 51.3825C141.013 50.1583 147.266 51.8432 147.41 59.0493C147.553 66.2554 140.335 76.4535 137.596 79.801C134.857 83.1484 120.263 101.246 113.164 104.846C106.065 108.446 102.253 110.528 95.8879 109.548C89.5228 108.569 86.892 104.846 86.892 104.846C86.892 104.846 85.0636 102.735 85.6654 99.735C92.2194 107.605 102.585 98.4567 104.066 97.2815C105.547 96.1062 119.651 82.9752 126.351 73.0541C133.051 63.1331 137.805 54.2074 129.929 59.8672C98.89 79.3726 84.0297 97.2815 84.0297 97.2815C84.0297 97.2815 77.604 105.248 82.1898 109.548C86.7753 113.849 74.3969 109.902 72.9893 106.073C71.5817 102.244 72.3747 96.8927 74.0116 93.4992C77.5024 87.1189 73.5393 91.9995 69.207 95.9526C64.8747 99.9057 56.2243 106.073 56.2243 106.073C56.2243 106.073 45.4802 114.53 39.1527 104.846C35.6576 94.8537 44.2639 85.0144 44.2639 85.0144C44.2639 85.0144 15.9317 111.589 7.87171 109.548C-0.1883 107.508 0.000378475 99.0194 0.000378475 99.0194C0.000378475 99.0194 0.204624 93.0793 2.76046 88.6946C5.31629 84.3098 5.95973 83.4611 10.734 77.5521C15.5082 71.6432 36.6802 53.4246 50.7039 51.3825C85.8134 44.5114 75.545 66.3074 75.545 66.3074" transform="translate(80.81702 35.099854)" id="path_2" />
    <path d="M84.8693 6.62287C78.3061 -2.59495 69.3363 0.504169 69.3311 0.48931C62.0663 4.77742 58.003 10.3195 56.3483 11.9386C54.6935 13.5577 36.0111 39.4405 35.1877 40.5619C34.3643 41.6832 11.4285 75.5565 8.91588 79.51C8.6419 79.941 8.26052 80.4943 7.80854 81.1499C4.11541 86.5075 -4.2906 98.7019 2.68015 106.907C9.7511 115.229 28.8103 97.6488 34.9298 92.004C35.5814 91.4029 36.0863 90.9372 36.4144 90.6525C36.3505 91.0751 36.2331 91.6182 36.0954 92.2546C35.0591 97.0462 32.8775 107.133 43.7747 110.995C56.1195 115.37 76.2301 100.271 98.9763 79.51C101.245 77.4396 107.665 70.7183 107.665 70.7183L106.95 69.9007C106.95 69.9007 86.9517 84.7294 79.2468 90.346C71.5419 95.9628 64.6019 99.3204 55.0195 102.613C41.7502 105.704 51.2901 93.1087 53.7927 90.346C58.8427 89.9967 61.3722 89.7717 69.3311 86.1547C77.2901 82.5375 84.8198 76.4457 92.4339 69.9007C94.7835 67.8811 97.4844 65.7812 98.9763 63.6649C102.319 58.9231 100.17 53.4448 92.4338 51.1934C77.6553 46.8927 44.7879 77.7577 43.7747 78.7944C42.7615 79.8309 18.4739 102.305 15.4582 99.3408C12.4425 96.376 16.8982 89.2897 31.712 66.9355C70.1199 8.97725 77.6922 6.79308 84.8693 6.62287ZM83.4381 60.2909C99.1662 53.0045 100.274 57.9314 72.1933 77.976C44.8251 97.878 64.2834 70.0981 83.4381 60.2909Z" transform="translate(214.50757 35.08496)" id="path_3" />
    <path d="M229.454 14.9507C229.437 15.6501 210.567 11.697 187.643 9.53273C170.56 7.91988 151.12 7.99707 136.122 7.99935C119.779 8.29806 94.2947 11.6921 81.84 14.9507C34.8767 26.63 -14.0298 54.8368 24.9009 69.9479C25.8327 72.6616 12.2167 70.1636 4.76238 62.6896C-0.856682 57.0557 -2.27856 48.0196 4.76238 39.4847C21.144 19.6275 66.4811 4.26813 95.5385 2.07028C124.596 -0.127565 137.426 -1.20093 170.367 2.07028C203.309 5.34149 229.536 11.4716 229.454 14.9507Z" transform="translate(0 13.468018)" id="path_4" />
  </defs>
  <g id="Group">
    <path d="M83.8039 40.2766C83.8039 40.2766 30.2815 73.8867 35.5534 156.2C34.8013 199.083 14.495 212.014 14.495 212.014C14.495 212.014 27.4094 188.618 27.3753 175.316C27.3412 162.013 25.9282 154.133 22.3663 149.862C18.8044 145.591 10.7021 136.878 0.285652 145.977C-0.890424 145.591 1.48047 137.536 8.97478 138.004C16.4691 138.472 23.8685 142.673 28.6019 147.408C23.3942 138.826 18.4498 135.214 7.74806 134.119C17.4913 132.742 23.7494 136.226 28.6019 140.15C18.8241 125.13 19.4448 114.58 22.3663 106.212C25.9443 113.974 27.3753 115.719 27.3753 115.719C27.3753 115.719 27.9186 77.554 35.5534 67.6729C36.1544 76.7362 40.1534 82.4955 40.1534 82.4955C40.1534 82.4955 35.5223 57.4466 51.5003 44.2634C56.9745 39.4269 73.9897 32.4097 82.0656 26.0673C92.7675 17.8493 97.9105 0 97.9105 0C97.9105 0 109.781 9.14397 103.635 26.0673C97.4893 42.9907 92.9635 45.2119 91.6747 46.5123C90.3858 47.8128 88.468 48.9324 86.9723 49.988C88.3151 50.1612 88.6609 50.0515 89.119 49.988C89.5772 49.9244 95.734 49.2726 100.773 47.4323C91.6018 58.1828 82.1232 68.351 74.8076 73.8064C80.2026 70.9278 85.5884 67.052 91.6747 66.3439C80.8533 89.3784 66.7194 102.764 63.3584 106.212C70.1899 103.544 75.0452 97.7729 77.1587 96.398C73.2767 111.871 69.5972 121.169 63.3584 127.679C57.1195 134.188 37.8614 150.149 37.5977 158.653C37.0475 147.62 35.3507 124.502 48.4335 93.638C61.5164 62.7735 83.8039 40.2766 83.8039 40.2766Z" transform="translate(279.59912 0)" id="New-shape-6" fill="#FB3719" fill-rule="evenodd" stroke="none" filter="url(#filter_1)" />
    <path d="M48.616 40.2767C48.616 40.2767 -4.9066 73.8868 0.365377 156.2C-1.09191 112.603 4.96538 82.4957 4.96538 82.4957C4.96538 82.4957 0.334281 57.4467 16.3124 44.2634C21.7866 39.427 38.8019 32.4098 46.8778 26.0674C57.5797 17.8493 62.7228 0 62.7228 0C62.7228 0 74.5932 9.14399 68.4474 26.0674C62.3016 42.9908 57.7758 45.212 56.487 46.5124C55.1982 47.8129 53.2803 48.9325 51.7845 49.988C53.1274 50.1613 53.4732 50.0516 53.9314 49.988C54.3895 49.9245 60.5463 49.2727 65.585 47.4324C56.4142 58.1829 46.9354 68.3512 39.6197 73.8065C28.0948 80.093 0.162686 124.503 13.2456 93.6382C26.3285 62.7736 48.616 40.2767 48.616 40.2767Z" transform="translate(314.78687 0)" id="New-shape-13" fill="url(#gradient_1)" fill-rule="evenodd" stroke="none" />
    <path d="M8.60714 0C8.60714 0 8.57345 8.54939 13.3952 15.1294C18.2169 21.7093 13.3952 37.7211 13.3952 37.7211C13.3952 37.7211 7.90289 57.8644 8.06436 71.5546C6.86735 62.1246 -0.820737 59.5874 0.0719296 48.7614C1.43777 6.80332 8.60714 0 8.60714 0Z" transform="translate(306.625 67.67297)" id="New-shape-7" fill="url(#gradient_2)" fill-rule="evenodd" stroke="none" />
    <g id="New-shape-2">
      <use stroke="none" fill="url(#gradient_3)" xlink:href="#path_1" fill-rule="evenodd" filter="url(#filter_2)" />
    </g>
    <g id="New-shape-4">
      <use stroke="none" fill="url(#gradient_3)" xlink:href="#path_2" fill-rule="evenodd" filter="url(#filter_2)" />
    </g>
    <g id="New-shape-5-Difference">
      <use stroke="none" fill="url(#gradient_3)" xlink:href="#path_3" fill-rule="evenodd" filter="url(#filter_2)" />
    </g>
    <g id="New-shape-5">
      <use stroke="none" fill="url(#gradient_3)" xlink:href="#path_4" fill-rule="evenodd" filter="url(#filter_2)" />
    </g>
    <path d="M2.30009 0C2.30009 0 4.2812 5.46672 7.07315 9.28202C9.86509 13.0973 13.5224 14.9981 15.3337 25.474C15.1394 35.8016 15.3337 46.4101 15.3337 46.4101L8.31224 34.1372C8.31224 34.1372 -2.03999 18.3662 0.361394 7.21933C1.14491 2.96401 2.30009 0 2.30009 0Z" transform="translate(299.69336 105.90491)" id="New-shape-8" fill="url(#gradient_4)" fill-rule="evenodd" stroke="none" filter="url(#filter_3)" />
    <path d="M2.30009 0C2.30009 0 4.2812 5.46672 7.07315 9.28202C9.86509 13.0973 13.5224 14.9981 15.3337 25.474C15.1394 35.8016 15.3337 46.4101 15.3337 46.4101L8.31224 34.1372C8.31224 34.1372 -2.03999 18.3662 0.361394 7.21933C1.14491 2.96401 2.30009 0 2.30009 0Z" transform="translate(299.69336 105.90491)" id="New-shape-11" fill="url(#gradient_2)" fill-rule="evenodd" stroke="none" filter="url(#filter_4)" />
    <path d="M0 0.45968C0 0.45968 18.2986 -0.319217 27.3964 27.8559C27.4736 26.8802 28.2077 21.5661 27.3964 17.6334C25.9016 10.3873 20.8711 2.83234 8.89357 0.459688C3.85762 -0.574605 0 0.45968 0 0.45968Z" transform="translate(287.47742 133.6593)" id="New-shape-9" fill="url(#gradient_5)" fill-rule="evenodd" stroke="none" filter="url(#filter_5)" />
    <path d="M0 64.4017C9.13053 56.9374 42.2747 28.4671 53.5658 0C28.6137 6.45048 1.55658 34.0781 0 64.4017Z" transform="translate(318.34937 64.81055)" id="New-shape-12" fill="url(#gradient_6)" fill-rule="evenodd" stroke="none" filter="url(#filter_6)" />
    <path d="M41.3826 0C41.3826 0 35.7159 27.8856 18.3168 40.8492C2.48559 54.7968 0.597979 63.3794 0.597979 63.3794C0.597979 63.3794 -0.747474 48.6439 0.597979 38.533C1.94343 28.4221 11.6095 17.0376 15.2764 14.213C18.9433 11.3884 23.0671 11.223 27.3335 10.3176C31.6 9.41213 41.3826 0 41.3826 0Z" transform="translate(316.65503 95.06909)" id="New-shape-10" fill="url(#gradient_7)" fill-rule="evenodd" stroke="none" />
  </g>
</svg>
