<?xml version="1.0" encoding="utf-8"?>
<svg width="383px" height="212px" viewBox="0 0 383 212" version="1.1" xmlns:xlink="http://www.w3.org/1999/xlink" xmlns="http://www.w3.org/2000/svg">
  <defs>
    <linearGradient x1="0.19752468" y1="0.2606148" x2="0.18699722" y2="1" id="gradient_1">
      <stop offset="0" stop-color="#FF7B36" />
      <stop offset="1" stop-color="#F80505" />
    </linearGradient>
    <linearGradient x1="0.5" y1="0" x2="0.5" y2="1" id="gradient_2">
      <stop offset="0" stop-color="#FF7B36" />
      <stop offset="1" stop-color="#F80505" />
    </linearGradient>
    <linearGradient x1="0.8676192" y1="0" x2="0.8676192" y2="2.6287436" id="gradient_3">
      <stop offset="0" stop-color="#FFFAF5" />
      <stop offset="1" stop-color="#722901" />
    </linearGradient>
    <linearGradient x1="0.5" y1="0" x2="0.5" y2="1" id="gradient_4">
      <stop offset="0" stop-color="#F80505" />
      <stop offset="1" stop-color="#FF7B36" />
    </linearGradient>
    <linearGradient x1="0.38477957" y1="-0.28357336" x2="0.44792587" y2="1.6505517" id="gradient_5">
      <stop offset="0" stop-color="#FF7B36" />
      <stop offset="1" stop-color="#F80505" />
    </linearGradient>
    <linearGradient x1="0.5" y1="0" x2="0.04509094" y2="1" id="gradient_6">
      <stop offset="0" stop-color="#FF7B36" />
      <stop offset="1" stop-color="#F80505" />
    </linearGradient>
    <linearGradient x1="1.1263837" y1="-0.12002977" x2="0.1877307" y2="0.8133283" id="gradient_7">
      <stop offset="0" stop-color="#FF7B36" />
      <stop offset="0.7127025" stop-color="#FB3D1C" />
      <stop offset="1" stop-color="#FA2A14" />
    </linearGradient>
    <filter filterUnits="userSpaceOnUse" color-interpolation-filters="sRGB" id="filter_1">
      <feFlood flood-opacity="0" result="BackgroundImageFix" />
      <feColorMatrix in="SourceAlpha" type="matrix" values="0 0 0 0 0 0 0 0 0 0 0 0 0 0 0 0 0 0 127 0" />
      <feOffset dx="0" dy="2" />
      <feGaussianBlur stdDeviation="18" />
      <feColorMatrix type="matrix" values="0 0 0 0 0 0 0 0 0 0 0 0 0 0 0 0 0 0 0.49803922 0" />
      <feBlend mode="normal" in2="BackgroundImageFix" result="effect0_dropShadow" />
      <feBlend mode="normal" in="SourceGraphic" in2="effect0_dropShadow" result="shape" />
    </filter>
    <filter filterUnits="userSpaceOnUse" color-interpolation-filters="sRGB" id="filter_2">
      <feFlood flood-opacity="0" result="BackgroundImageFix" />
      <feColorMatrix in="SourceAlpha" type="matrix" values="0 0 0 0 0 0 0 0 0 0 0 0 0 0 0 0 0 0 127 0" />
      <feOffset dx="0" dy="2" />
      <feGaussianBlur stdDeviation="2" />
      <feColorMatrix type="matrix" values="0 0 0 0 0 0 0 0 0 0 0 0 0 0 0 0 0 0 0.49803922 0" />
      <feBlend mode="normal" in2="BackgroundImageFix" result="effect0_dropShadow" />
      <feBlend mode="normal" in="SourceGraphic" in2="effect0_dropShadow" result="shape" />
    </filter>
    <filter filterUnits="userSpaceOnUse" color-interpolation-filters="sRGB" id="filter_3">
      <feFlood flood-opacity="0" result="BackgroundImageFix" />
      <feColorMatrix in="SourceAlpha" type="matrix" values="0 0 0 0 0 0 0 0 0 0 0 0 0 0 0 0 0 0 127 0" />
      <feOffset dx="0" dy="2" />
      <feGaussianBlur stdDeviation="22" />
      <feColorMatrix type="matrix" values="0 0 0 0 0 0 0 0 0 0 0 0 0 0 0 0 0 0 0.49803922 0" />
      <feBlend mode="normal" in2="BackgroundImageFix" result="effect0_dropShadow" />
      <feBlend mode="normal" in="SourceGraphic" in2="effect0_dropShadow" result="shape" />
    </filter>
    <filter filterUnits="userSpaceOnUse" color-interpolation-filters="sRGB" id="filter_4">
      <feFlood flood-opacity="0" result="BackgroundImageFix" />
      <feBlend mode="normal" in="SourceGraphic" in2="BackgroundImageFix" result="shape" />
      <feColorMatrix in="SourceAlpha" type="matrix" values="0 0 0 0 0 0 0 0 0 0 0 0 0 0 0 0 0 0 127 0" result="hardAlpha" />
      <feOffset dx="15" dy="-8" />
      <feGaussianBlur stdDeviation="6" />
      <feComposite in2="hardAlpha" operator="arithmetic" k2="-1" k3="1" />
      <feColorMatrix type="matrix" values="0 0 0 0 1 0 0 0 0 1 0 0 0 0 1 0 0 0 0.45882353 0" />
      <feBlend mode="normal" in2="shape" result="effect0_innerShadow" />
      <feColorMatrix in="SourceAlpha" type="matrix" values="0 0 0 0 0 0 0 0 0 0 0 0 0 0 0 0 0 0 127 0" result="hardAlpha" />
      <feOffset dx="-8" dy="-4" />
      <feGaussianBlur stdDeviation="5" />
      <feComposite in2="hardAlpha" operator="arithmetic" k2="-1" k3="1" />
      <feColorMatrix type="matrix" values="0 0 0 0 1 0 0 0 0 1 0 0 0 0 1 0 0 0 0.4392157 0" />
      <feBlend mode="normal" in2="effect0_innerShadow" result="effect1_innerShadow" />
    </filter>
    <filter filterUnits="userSpaceOnUse" color-interpolation-filters="sRGB" id="filter_5">
      <feFlood flood-opacity="0" result="BackgroundImageFix" />
      <feColorMatrix in="SourceAlpha" type="matrix" values="0 0 0 0 0 0 0 0 0 0 0 0 0 0 0 0 0 0 127 0" />
      <feOffset dx="0" dy="2" />
      <feGaussianBlur stdDeviation="7" />
      <feColorMatrix type="matrix" values="0 0 0 0 0 0 0 0 0 0 0 0 0 0 0 0 0 0 0.25882354 0" />
      <feBlend mode="normal" in2="BackgroundImageFix" result="effect0_dropShadow" />
      <feBlend mode="normal" in="SourceGraphic" in2="effect0_dropShadow" result="shape" />
    </filter>
    <filter filterUnits="userSpaceOnUse" color-interpolation-filters="sRGB" id="filter_6">
      <feFlood flood-opacity="0" result="BackgroundImageFix" />
      <feColorMatrix in="SourceAlpha" type="matrix" values="0 0 0 0 0 0 0 0 0 0 0 0 0 0 0 0 0 0 127 0" />
      <feOffset dx="0" dy="2" />
      <feGaussianBlur stdDeviation="9" />
      <feColorMatrix type="matrix" values="0 0 0 0 0 0 0 0 0 0 0 0 0 0 0 0 0 0 0.1882353 0" />
      <feBlend mode="normal" in2="BackgroundImageFix" result="effect0_dropShadow" />
      <feBlend mode="normal" in="SourceGraphic" in2="effect0_dropShadow" result="shape" />
    </filter>
    <filter filterUnits="userSpaceOnUse" color-interpolation-filters="sRGB" id="filter_7">
      <feFlood flood-opacity="0" result="BackgroundImageFix" />
      <feColorMatrix in="SourceAlpha" type="matrix" values="0 0 0 0 0 0 0 0 0 0 0 0 0 0 0 0 0 0 127 0" />
      <feOffset dx="0" dy="2" />
      <feGaussianBlur stdDeviation="18" />
      <feColorMatrix type="matrix" values="0 0 0 0 0 0 0 0 0 0 0 0 0 0 0 0 0 0 0.34117648 0" />
      <feBlend mode="normal" in2="BackgroundImageFix" result="effect0_dropShadow" />
      <feBlend mode="normal" in="SourceGraphic" in2="effect0_dropShadow" result="shape" />
    </filter>
    <filter filterUnits="userSpaceOnUse" color-interpolation-filters="sRGB" id="filter_8">
      <feFlood flood-opacity="0" result="BackgroundImageFix" />
      <feColorMatrix in="SourceAlpha" type="matrix" values="0 0 0 0 0 0 0 0 0 0 0 0 0 0 0 0 0 0 127 0" />
      <feOffset dx="0" dy="2" />
      <feGaussianBlur stdDeviation="6.5" />
      <feColorMatrix type="matrix" values="0 0 0 0 0 0 0 0 0 0 0 0 0 0 0 0 0 0 0.18039216 0" />
      <feBlend mode="normal" in2="BackgroundImageFix" result="effect0_dropShadow" />
      <feBlend mode="normal" in="SourceGraphic" in2="effect0_dropShadow" result="shape" />
    </filter>
    <path d="M111.027 9.21892C111.027 9.21892 107.831 -0.873297 97.5966 0.0610954C87.3616 0.995487 70.5296 22.8539 70.5296 22.8539L47.3296 49.6149C47.3296 49.6149 40.8262 49.2626 33.9993 50.6324C27.1723 52.0021 -0.703014 60.1078 0.0135698 73.2217C-0.00891538 77.0679 5.20303 79.6319 5.20303 79.6319C5.20303 79.6319 8.44716 68.47 39.3922 60.4008C15.2196 91.4895 8.15387 123.488 8.15387 123.488C8.15387 123.488 4.52952 134.629 12.7328 136.004C17.8422 137.057 20.7713 129.288 20.7713 129.288C20.7713 129.288 12.8755 133.476 14.5643 128.067C21.5353 105.74 62.0232 54.0343 61.9815 54.0921C71.6147 51.9481 110.213 50.6324 110.213 50.6324L110.213 49.6149C110.213 49.6149 101.735 47.0931 69.1042 45.5448C90.1282 14.9612 111.027 9.21892 111.027 9.21892Z" transform="translate(27.294983 31.279053)" id="path_1" />
    <path d="M75.1966 66.0017C75.1966 66.0017 71.9799 55.827 68.2774 54.7069C64.5749 53.5869 52.9708 59.5289 49.0458 61.728C45.1208 63.927 40.7129 67.2235 37.8529 69.3594C34.9929 71.4955 29.8431 75.6119 27.881 78.0085C25.9188 80.4051 20.8831 85.572 19.0283 88.6926C17.1736 91.8134 15.0646 94.9518 14.7547 95.8155C14.4448 96.6791 14.1519 97.9502 14.3477 98.5628C14.5434 99.1755 14.7623 99.8292 15.7722 99.275C16.7822 98.721 17.3175 98.3114 17.8073 97.9523C18.2971 97.5931 24.2652 93.9969 25.4389 93.068C26.6125 92.1393 40.0213 82.8017 41.3125 81.6715C42.6036 80.5416 46.7765 77.7525 47.3159 77.1945C47.8555 76.6364 53.6412 70.5746 54.744 69.3594C55.8469 68.1442 60.1863 65.3556 61.0528 64.7806C61.9193 64.2054 64.8538 62.1717 66.751 63.763C68.6481 65.3542 69.1965 66.3436 69.7019 67.1208C70.2073 67.8981 71.8782 70.3694 71.3299 71.9033C70.7817 73.437 69.3123 74.5371 68.8878 74.8541C68.4634 75.1712 61.503 80.5478 58.1019 85.64C54.7008 90.7322 53.5005 93.0931 53.116 93.8821C52.7314 94.6711 49.0381 102.853 52.709 100.801C56.3797 98.7493 59.9518 96.0616 60.6458 95.5101C61.3397 94.9587 69.753 88.6291 70.2107 88.2856C70.6683 87.9421 77.2717 83.5207 77.8422 82.4857C78.4129 81.4507 81.4009 76.6605 81.8108 75.8717C82.2205 75.0829 103.522 40.4137 114.067 27.9457C124.611 15.4777 136.831 1.10952 139.811 0.370522C142.79 -0.368476 149.721 -0.167023 152.53 2.50735C155.339 5.18172 155.785 7.08624 155.785 7.08624C155.785 7.08624 152.671 6.49884 147.951 10.4441C143.23 14.3894 137.713 19.7582 134.621 23.5703C131.529 27.3825 122.083 39.8181 119.765 42.9035C117.447 45.9888 109.081 57.8612 109.081 57.8612L96.2598 77.1945C96.2598 77.1945 123.588 52.3641 131.975 51.1455C140.363 49.927 146.587 51.6041 146.73 58.777C146.873 65.9499 139.688 76.1009 136.961 79.433C134.235 82.765 119.708 100.779 112.642 104.363C105.576 107.946 101.781 110.018 95.4457 109.043C89.1099 108.068 86.4913 104.363 86.4913 104.363C86.4913 104.363 84.6714 102.261 85.2703 99.275C91.7941 107.109 102.112 98.0027 103.586 96.8329C105.06 95.663 119.099 82.5926 125.768 72.7172C132.438 62.8419 137.17 53.9574 129.33 59.5911C98.434 79.0065 83.6422 96.8329 83.6422 96.8329C83.6422 96.8329 77.2461 104.763 81.8108 109.043C86.3752 113.324 74.0538 109.395 72.6527 105.584C71.2516 101.773 72.0409 96.4458 73.6703 93.068C77.145 86.7171 73.2002 91.5752 68.8878 95.5101C64.5756 99.445 55.965 105.584 55.965 105.584C55.965 105.584 45.2705 114.001 38.9721 104.363C35.4932 94.4163 44.0598 84.6224 44.0598 84.6224C44.0598 84.6224 15.8583 111.075 7.83541 109.043C-0.187432 107.012 0.000376729 98.5628 0.000376729 98.5628C0.000376729 98.5628 0.20368 92.6501 2.74773 88.2856C5.29178 83.921 5.93225 83.0762 10.6845 77.1945C15.4367 71.3128 36.5111 53.1782 50.4701 51.1456C85.4177 44.3061 75.1966 66.0016 75.1966 66.0016" transform="translate(80.016174 34.93799)" id="path_2" />
    <path d="M84.478 6.59233C77.945 -2.58298 69.0165 0.501844 69.0114 0.487054C61.7801 4.75538 57.7355 10.2719 56.0884 11.8836C54.4413 13.4952 35.8451 39.2586 35.0254 40.3748C34.2058 41.491 11.3758 75.2081 8.87476 79.1433C8.60205 79.5723 8.22242 80.1231 7.77253 80.7757C4.09643 86.1086 -4.27081 98.2467 2.66779 106.414C9.70613 114.698 28.6775 97.1984 34.7687 91.5797C35.4173 90.9814 35.9199 90.5179 36.2465 90.2345C36.1829 90.6551 36.066 91.1957 35.9289 91.8292C34.8974 96.5987 32.7259 106.639 43.5728 110.484C55.8607 114.838 75.8786 99.8088 98.5198 79.1433C100.778 77.0825 107.169 70.3922 107.169 70.3922L106.457 69.5784C106.457 69.5784 86.5507 84.3386 78.8813 89.9294C71.2119 95.5202 64.3039 98.8624 54.7657 102.14C41.5576 105.217 51.0535 92.6794 53.5446 89.9294C58.5713 89.5817 61.0892 89.3577 69.0114 85.7574C76.9336 82.1569 84.4286 76.0931 92.0076 69.5784C94.3464 67.568 97.0348 65.4779 98.5198 63.3713C101.847 58.6514 99.7084 53.1983 92.0076 50.9573C77.2971 46.6764 44.5814 77.3991 43.5728 78.4311C42.5643 79.4628 18.3887 101.834 15.3869 98.8826C12.3851 95.9316 16.8203 88.8779 31.5657 66.6268C69.7965 8.93585 77.3339 6.76175 84.478 6.59233ZM83.0533 60.0128C98.7088 52.76 99.8115 57.6641 71.8604 77.6163C44.6184 97.4265 63.9869 69.7748 83.0533 60.0128Z" transform="translate(213.09021 34.923218)" id="path_3" />
    <path d="M228.396 14.8817C228.379 15.5779 209.596 11.6431 186.778 9.48877C169.774 7.88336 150.423 7.96019 135.494 7.96246C119.227 8.2598 93.8599 11.6381 81.4626 14.8817C34.7159 26.5072 -13.9651 54.5839 24.7861 69.6254C25.7136 72.3266 12.1604 69.84 4.74042 62.4005C-0.852731 56.7926 -2.26805 47.7982 4.74042 39.3027C21.0465 19.5369 66.1745 4.24845 95.0979 2.06073C124.021 -0.126977 136.792 -1.19539 169.582 2.06073C202.372 5.31685 228.478 11.4187 228.396 14.8817Z" transform="translate(0 13.431519)" id="path_4" />
  </defs>
  <g id="Group">
    <path d="M83.4174 40.0909C83.4174 40.0909 30.1418 73.546 35.3894 155.479C34.6408 198.165 14.4281 211.037 14.4281 211.037C14.4281 211.037 27.2831 187.748 27.2491 174.507C27.2152 161.266 25.8087 153.422 22.2632 149.171C18.7177 144.919 10.6527 136.246 0.284335 145.304C-0.886318 144.919 1.47364 136.901 8.93339 137.367C16.3931 137.833 23.7585 142.015 28.47 146.729C23.2863 138.186 18.3647 134.591 7.71233 133.501C17.4107 132.13 23.6399 135.598 28.47 139.504C18.7373 124.553 19.3551 114.052 22.2632 105.722C25.8247 113.448 27.2491 115.185 27.2491 115.185C27.2491 115.185 27.7899 77.1964 35.3895 67.3608C35.9876 76.3823 39.9682 82.1151 39.9682 82.1151C39.9682 82.1151 35.3585 57.1817 51.2628 44.0592C56.7118 39.2451 73.6485 32.2603 81.6871 25.9471C92.3397 17.7669 97.4589 0 97.4589 0C97.4589 0 109.275 9.1018 103.157 25.9471C97.0397 42.7925 92.5348 45.0034 91.2519 46.2978C89.969 47.5923 88.06 48.7068 86.5713 49.7574C87.9079 49.9299 88.252 49.8207 88.7081 49.7574C89.1641 49.6942 95.2925 49.0454 100.308 47.2136C91.1794 57.9145 81.7445 68.0358 74.4626 73.466C79.8327 70.6007 85.1937 66.7428 91.2519 66.038C80.4805 88.9662 66.4117 102.29 63.0662 105.722C69.8662 103.066 74.6991 97.322 76.8029 95.9535C72.9388 111.355 69.2763 120.611 63.0662 127.09C56.8561 133.569 37.6868 149.456 37.4243 157.921C36.8766 146.939 35.1877 123.928 48.2102 93.2062C61.2327 62.484 83.4174 40.0909 83.4174 40.0909Z" transform="translate(277.8817 0)" id="New-shape-6" fill="#FB3719" fill-rule="evenodd" stroke="none" filter="url(#filter_1)" />
    <path d="M48.3918 40.091C48.3918 40.091 -4.88397 73.5461 0.363692 155.48C-1.08688 112.084 4.94248 82.1152 4.94248 82.1152C4.94248 82.1152 0.33274 57.1818 16.2372 44.0593C21.6861 39.2452 38.6229 32.2604 46.6616 25.9472C57.3142 17.767 62.4335 0 62.4335 0C62.4335 0 74.2492 9.10183 68.1317 25.9472C62.0143 42.7925 57.5093 45.0035 56.2265 46.2979C54.9436 47.5924 53.0346 48.7069 51.5457 49.7575C52.8824 49.93 53.2266 49.8207 53.6826 49.7575C54.1387 49.6943 60.2671 49.0455 65.2826 47.2137C56.154 57.9146 46.719 68.036 39.437 73.4662C27.9652 79.7237 0.161936 123.929 13.1845 93.2064C26.2071 62.4842 48.3918 40.091 48.3918 40.091Z" transform="translate(312.90717 0)" id="New-shape-13" fill="url(#gradient_1)" fill-rule="evenodd" stroke="none" filter="url(#filter_1)" />
    <path d="M8.56745 0C8.56745 0 8.53391 8.50997 13.3334 15.0596C18.1329 21.6092 13.3334 37.5471 13.3334 37.5471C13.3334 37.5471 7.86644 57.5976 8.02717 71.2246C6.83568 61.8382 -0.816952 59.3126 0.0715979 48.5365C1.43114 6.77195 8.56745 0 8.56745 0Z" transform="translate(304.78296 67.36084)" id="New-shape-7" fill="url(#gradient_2)" fill-rule="evenodd" stroke="none" filter="url(#filter_2)" />
    <g id="New-shape-2" filter="url(#filter_3)">
      <use stroke="none" fill="url(#gradient_3)" xlink:href="#path_1" fill-rule="evenodd" filter="url(#filter_4)" />
    </g>
    <g id="New-shape-4" filter="url(#filter_3)">
      <use stroke="none" fill="url(#gradient_3)" xlink:href="#path_2" fill-rule="evenodd" filter="url(#filter_4)" />
    </g>
    <g id="New-shape-5-Difference" filter="url(#filter_3)">
      <use stroke="none" fill="url(#gradient_3)" xlink:href="#path_3" fill-rule="evenodd" filter="url(#filter_4)" />
    </g>
    <g id="New-shape-5" filter="url(#filter_3)">
      <use stroke="none" fill="url(#gradient_3)" xlink:href="#path_4" fill-rule="evenodd" filter="url(#filter_4)" />
    </g>
    <path d="M2.28948 0C2.28948 0 4.26146 5.44151 7.04053 9.23921C9.81959 13.0369 13.46 14.9289 15.263 25.3565C15.0696 35.6365 15.263 46.1961 15.263 46.1961L8.27391 33.9798C8.27391 33.9798 -2.03058 18.2815 0.359727 7.18604C1.13963 2.95034 2.28948 0 2.28948 0Z" transform="translate(297.88318 105.416626)" id="New-shape-8" fill="url(#gradient_4)" fill-rule="evenodd" stroke="none" filter="url(#filter_2)" />
    <path d="M2.28948 0C2.28948 0 4.26146 5.44151 7.04053 9.23921C9.81959 13.0369 13.46 14.9289 15.263 25.3565C15.0696 35.6365 15.263 46.1961 15.263 46.1961L8.27391 33.9798C8.27391 33.9798 -2.03058 18.2815 0.359727 7.18604C1.13963 2.95034 2.28948 0 2.28948 0Z" transform="translate(297.88318 105.416626)" id="New-shape-11" fill="url(#gradient_2)" fill-rule="evenodd" stroke="none" filter="url(#filter_5)" />
    <path d="M0 0.45756C0 0.45756 18.2142 -0.317745 27.27 27.7274C27.3469 26.7562 28.0776 21.4667 27.27 17.552C25.7821 10.3394 20.7748 2.81928 8.85255 0.457568C3.83982 -0.571956 0 0.45756 0 0.45756Z" transform="translate(285.72363 133.04297)" id="New-shape-9" fill="url(#gradient_5)" fill-rule="evenodd" stroke="none" filter="url(#filter_6)" />
    <path d="M0 64.1047C9.08843 56.6749 42.0798 28.3359 53.3188 0C28.4817 6.42073 1.54941 33.921 0 64.1047Z" transform="translate(316.45325 64.51172)" id="New-shape-12" fill="url(#gradient_6)" fill-rule="evenodd" stroke="none" filter="url(#filter_7)" />
    <path d="M41.1918 0C41.1918 0 35.5512 27.757 18.2324 40.6608C2.47413 54.5441 0.595222 63.0872 0.595222 63.0872C0.595222 63.0872 -0.744027 48.4196 0.595222 38.3553C1.93447 28.291 11.5559 16.959 15.2059 14.1475C18.8559 11.3359 22.9607 11.1713 27.2075 10.27C31.4543 9.36872 41.1918 0 41.1918 0Z" transform="translate(314.7666 94.630615)" id="New-shape-10" fill="url(#gradient_7)" fill-rule="evenodd" stroke="none" filter="url(#filter_8)" />
  </g>
</svg>