<?xml version="1.0" encoding="utf-8"?>
<svg width="2004px" height="1146px" viewBox="0 0 2004 1146" version="1.1" xmlns:xlink="http://www.w3.org/1999/xlink" xmlns="http://www.w3.org/2000/svg">
  <defs>
    <linearGradient x1="0.19752468" y1="0.2606148" x2="0.18699722" y2="1" id="gradient_1">
      <stop offset="0" stop-color="#FF7B36" />
      <stop offset="1" stop-color="#F80505" />
    </linearGradient>
    <linearGradient x1="0.5" y1="0" x2="0.5" y2="1" id="gradient_2">
      <stop offset="0" stop-color="#FF7B36" />
      <stop offset="1" stop-color="#F80505" />
    </linearGradient>
    <linearGradient x1="0.8676192" y1="0" x2="0.8676192" y2="2.6287436" id="gradient_3">
      <stop offset="0" stop-color="#FFFAF5" />
      <stop offset="1" stop-color="#722901" />
    </linearGradient>
    <linearGradient x1="0.5" y1="0" x2="0.5" y2="1" id="gradient_4">
      <stop offset="0" stop-color="#F80505" />
      <stop offset="1" stop-color="#FF7B36" />
    </linearGradient>
    <linearGradient x1="0.38477957" y1="-0.28357336" x2="0.44792587" y2="1.6505517" id="gradient_5">
      <stop offset="0" stop-color="#FF7B36" />
      <stop offset="1" stop-color="#F80505" />
    </linearGradient>
    <linearGradient x1="0.5" y1="0" x2="0.04509094" y2="1" id="gradient_6">
      <stop offset="0" stop-color="#FF7B36" />
      <stop offset="1" stop-color="#F80505" />
    </linearGradient>
    <linearGradient x1="1.1263837" y1="-0.12002977" x2="0.1877307" y2="0.8133283" id="gradient_7">
      <stop offset="0" stop-color="#FF7B36" />
      <stop offset="0.7127025" stop-color="#FB3D1C" />
      <stop offset="1" stop-color="#FA2A14" />
    </linearGradient>
    <filter filterUnits="userSpaceOnUse" color-interpolation-filters="sRGB" id="filter_1">
      <feFlood flood-opacity="0" result="BackgroundImageFix" />
      <feColorMatrix in="SourceAlpha" type="matrix" values="0 0 0 0 0 0 0 0 0 0 0 0 0 0 0 0 0 0 127 0" />
      <feOffset dx="0" dy="2" />
      <feGaussianBlur stdDeviation="18" />
      <feColorMatrix type="matrix" values="0 0 0 0 0 0 0 0 0 0 0 0 0 0 0 0 0 0 0.49803922 0" />
      <feBlend mode="normal" in2="BackgroundImageFix" result="effect0_dropShadow" />
      <feBlend mode="normal" in="SourceGraphic" in2="effect0_dropShadow" result="shape" />
    </filter>
    <filter filterUnits="userSpaceOnUse" color-interpolation-filters="sRGB" id="filter_2">
      <feFlood flood-opacity="0" result="BackgroundImageFix" />
      <feColorMatrix in="SourceAlpha" type="matrix" values="0 0 0 0 0 0 0 0 0 0 0 0 0 0 0 0 0 0 127 0" />
      <feOffset dx="0" dy="2" />
      <feGaussianBlur stdDeviation="2" />
      <feColorMatrix type="matrix" values="0 0 0 0 0 0 0 0 0 0 0 0 0 0 0 0 0 0 0.49803922 0" />
      <feBlend mode="normal" in2="BackgroundImageFix" result="effect0_dropShadow" />
      <feBlend mode="normal" in="SourceGraphic" in2="effect0_dropShadow" result="shape" />
    </filter>
    <filter filterUnits="userSpaceOnUse" color-interpolation-filters="sRGB" id="filter_3">
      <feFlood flood-opacity="0" result="BackgroundImageFix" />
      <feColorMatrix in="SourceAlpha" type="matrix" values="0 0 0 0 0 0 0 0 0 0 0 0 0 0 0 0 0 0 127 0" />
      <feOffset dx="0" dy="2" />
      <feGaussianBlur stdDeviation="22" />
      <feColorMatrix type="matrix" values="0 0 0 0 0 0 0 0 0 0 0 0 0 0 0 0 0 0 0.49803922 0" />
      <feBlend mode="normal" in2="BackgroundImageFix" result="effect0_dropShadow" />
      <feBlend mode="normal" in="SourceGraphic" in2="effect0_dropShadow" result="shape" />
    </filter>
    <filter filterUnits="userSpaceOnUse" color-interpolation-filters="sRGB" id="filter_4">
      <feFlood flood-opacity="0" result="BackgroundImageFix" />
      <feBlend mode="normal" in="SourceGraphic" in2="BackgroundImageFix" result="shape" />
      <feColorMatrix in="SourceAlpha" type="matrix" values="0 0 0 0 0 0 0 0 0 0 0 0 0 0 0 0 0 0 127 0" result="hardAlpha" />
      <feOffset dx="15" dy="-8" />
      <feGaussianBlur stdDeviation="6" />
      <feComposite in2="hardAlpha" operator="arithmetic" k2="-1" k3="1" />
      <feColorMatrix type="matrix" values="0 0 0 0 1 0 0 0 0 1 0 0 0 0 1 0 0 0 0.45882353 0" />
      <feBlend mode="normal" in2="shape" result="effect0_innerShadow" />
      <feColorMatrix in="SourceAlpha" type="matrix" values="0 0 0 0 0 0 0 0 0 0 0 0 0 0 0 0 0 0 127 0" result="hardAlpha" />
      <feOffset dx="-8" dy="-4" />
      <feGaussianBlur stdDeviation="5" />
      <feComposite in2="hardAlpha" operator="arithmetic" k2="-1" k3="1" />
      <feColorMatrix type="matrix" values="0 0 0 0 1 0 0 0 0 1 0 0 0 0 1 0 0 0 0.4392157 0" />
      <feBlend mode="normal" in2="effect0_innerShadow" result="effect1_innerShadow" />
    </filter>
    <filter filterUnits="userSpaceOnUse" color-interpolation-filters="sRGB" id="filter_5">
      <feFlood flood-opacity="0" result="BackgroundImageFix" />
      <feColorMatrix in="SourceAlpha" type="matrix" values="0 0 0 0 0 0 0 0 0 0 0 0 0 0 0 0 0 0 127 0" />
      <feOffset dx="0" dy="2" />
      <feGaussianBlur stdDeviation="7" />
      <feColorMatrix type="matrix" values="0 0 0 0 0 0 0 0 0 0 0 0 0 0 0 0 0 0 0.25882354 0" />
      <feBlend mode="normal" in2="BackgroundImageFix" result="effect0_dropShadow" />
      <feBlend mode="normal" in="SourceGraphic" in2="effect0_dropShadow" result="shape" />
    </filter>
    <filter filterUnits="userSpaceOnUse" color-interpolation-filters="sRGB" id="filter_6">
      <feFlood flood-opacity="0" result="BackgroundImageFix" />
      <feColorMatrix in="SourceAlpha" type="matrix" values="0 0 0 0 0 0 0 0 0 0 0 0 0 0 0 0 0 0 127 0" />
      <feOffset dx="0" dy="2" />
      <feGaussianBlur stdDeviation="9" />
      <feColorMatrix type="matrix" values="0 0 0 0 0 0 0 0 0 0 0 0 0 0 0 0 0 0 0.1882353 0" />
      <feBlend mode="normal" in2="BackgroundImageFix" result="effect0_dropShadow" />
      <feBlend mode="normal" in="SourceGraphic" in2="effect0_dropShadow" result="shape" />
    </filter>
    <filter filterUnits="userSpaceOnUse" color-interpolation-filters="sRGB" id="filter_7">
      <feFlood flood-opacity="0" result="BackgroundImageFix" />
      <feColorMatrix in="SourceAlpha" type="matrix" values="0 0 0 0 0 0 0 0 0 0 0 0 0 0 0 0 0 0 127 0" />
      <feOffset dx="0" dy="2" />
      <feGaussianBlur stdDeviation="18" />
      <feColorMatrix type="matrix" values="0 0 0 0 0 0 0 0 0 0 0 0 0 0 0 0 0 0 0.34117648 0" />
      <feBlend mode="normal" in2="BackgroundImageFix" result="effect0_dropShadow" />
      <feBlend mode="normal" in="SourceGraphic" in2="effect0_dropShadow" result="shape" />
    </filter>
    <filter filterUnits="userSpaceOnUse" color-interpolation-filters="sRGB" id="filter_8">
      <feFlood flood-opacity="0" result="BackgroundImageFix" />
      <feColorMatrix in="SourceAlpha" type="matrix" values="0 0 0 0 0 0 0 0 0 0 0 0 0 0 0 0 0 0 127 0" />
      <feOffset dx="0" dy="2" />
      <feGaussianBlur stdDeviation="6.5" />
      <feColorMatrix type="matrix" values="0 0 0 0 0 0 0 0 0 0 0 0 0 0 0 0 0 0 0.18039216 0" />
      <feBlend mode="normal" in2="BackgroundImageFix" result="effect0_dropShadow" />
      <feBlend mode="normal" in="SourceGraphic" in2="effect0_dropShadow" result="shape" />
    </filter>
    <path d="M545.567 45.3003C545.567 45.3003 529.866 -4.29124 479.574 0.300213C429.281 4.89166 346.571 112.3 346.571 112.3L232.57 243.799C232.57 243.799 200.613 242.068 167.067 248.799C133.52 255.53 -3.45449 295.36 0.0666797 359.8C-0.0438087 378.699 25.5668 391.298 25.5668 391.298C25.5668 391.298 41.508 336.451 193.567 296.8C74.7867 449.565 40.0668 606.799 40.0668 606.799C40.0668 606.799 22.2573 661.547 62.5668 668.3C87.6738 673.478 102.067 635.302 102.067 635.302C102.067 635.302 63.2681 655.882 71.5668 629.301C105.821 519.588 304.772 265.516 304.567 265.8C351.903 255.265 541.567 248.799 541.567 248.799L541.567 243.8C541.567 243.8 499.911 231.408 339.567 223.8C442.876 73.5169 545.567 45.3003 545.567 45.3003Z" transform="translate(202.22652 205.70032)" id="path_1" />
    <path d="M369.504 324.321C369.504 324.321 353.698 274.325 335.504 268.821C317.311 263.317 260.29 292.515 241.003 303.321C221.716 314.127 200.056 330.325 186.003 340.821C171.949 351.317 146.644 371.545 137.002 383.321C127.361 395.097 102.616 420.487 93.5022 435.821C84.3881 451.156 74.025 466.578 72.5021 470.822C70.9792 475.066 69.5402 481.312 70.5021 484.322C71.464 487.332 72.5394 490.544 77.5022 487.821C82.4648 485.099 85.0953 483.087 87.5022 481.322C89.909 479.556 119.235 461.885 125.002 457.321C130.77 452.757 196.658 406.874 203.003 401.321C209.347 395.768 229.852 382.063 232.503 379.321C235.154 376.579 263.584 346.792 269.003 340.821C274.422 334.85 295.746 321.147 300.004 318.321C304.261 315.495 318.681 305.502 328.004 313.321C337.326 321.14 340.02 326.002 342.504 329.821C344.987 333.64 353.198 345.784 350.504 353.321C347.81 360.858 340.589 366.263 338.504 367.821C336.418 369.379 302.216 395.799 285.503 420.821C268.791 445.843 262.893 457.445 261.003 461.321C259.114 465.198 240.965 505.405 259.003 495.321C277.041 485.238 294.594 472.031 298.004 469.321C301.413 466.612 342.755 435.509 345.004 433.821C347.252 432.133 379.7 410.407 382.504 405.321C385.308 400.235 399.991 376.697 402.005 372.821C404.018 368.945 508.69 198.586 560.505 137.321C612.32 76.055 672.363 5.45201 687.006 1.82069C701.649 -1.81063 735.704 -0.820726 749.507 12.3207C763.309 25.4621 765.503 34.8206 765.503 34.8206C765.503 34.8206 750.201 31.9343 727.006 51.3207C703.811 70.7072 676.7 97.0884 661.507 115.821C646.312 134.553 599.895 195.66 588.506 210.821C577.117 225.982 536.005 284.321 536.005 284.321L473.005 379.321C473.005 379.321 607.291 257.309 648.505 251.321C689.721 245.333 720.303 253.574 721.006 288.821C721.709 324.067 686.404 373.948 673.006 390.321C659.607 406.694 588.227 495.214 553.505 512.821C518.783 530.428 500.137 540.613 469.005 535.821C437.872 531.029 425.004 512.821 425.004 512.821C425.004 512.821 416.061 502.494 419.004 487.821C451.062 526.314 501.759 481.569 509.005 475.821C516.25 470.073 585.233 405.847 618.005 357.321C650.778 308.795 674.031 265.138 635.506 292.821C483.689 388.225 411.004 475.821 411.004 475.821C411.004 475.821 379.575 514.787 402.005 535.821C424.434 556.855 363.889 537.548 357.004 518.822C350.119 500.096 353.997 473.919 362.004 457.321C379.078 426.114 359.694 449.986 338.504 469.321C317.314 488.657 275.003 518.822 275.003 518.822C275.003 518.822 222.452 560.184 191.503 512.821C174.408 463.946 216.503 415.821 216.503 415.821C216.503 415.821 77.9249 545.803 38.502 535.821C-0.921009 525.839 0.00185119 484.322 0.00185119 484.322C0.00185119 484.322 1.00085 455.268 13.5019 433.821C26.0029 412.374 29.1501 408.223 52.5018 379.321C75.8535 350.42 179.41 261.309 248.002 251.321C419.729 217.713 369.504 324.321 369.504 324.321" transform="translate(461.29022 223.67957)" id="path_2" />
    <path d="M415.111 32.3936C383.009 -12.6924 339.136 2.46599 339.111 2.3933C303.578 23.3672 283.703 50.4746 275.609 58.3939C267.516 66.3132 176.137 192.91 172.109 198.395C168.082 203.88 55.899 369.561 43.6092 388.897C42.2691 391.006 40.4037 393.712 38.193 396.919C20.1292 423.124 -20.9861 482.769 13.1091 522.9C47.6943 563.607 140.916 477.617 170.848 450.008C174.035 447.068 176.505 444.79 178.109 443.398C177.797 445.465 177.222 448.121 176.549 451.234C171.48 474.67 160.81 524.008 214.11 542.899C274.49 564.297 372.855 490.444 484.111 388.897C495.206 378.771 526.609 345.896 526.609 345.896L523.111 341.897C523.111 341.897 425.296 414.426 387.61 441.898C349.924 469.371 315.979 485.794 269.11 501.9C204.208 517.019 250.869 455.411 263.11 441.898C287.81 440.19 300.182 439.089 339.111 421.398C378.039 403.706 414.869 373.909 452.111 341.897C463.603 332.018 476.814 321.748 484.111 311.396C500.459 288.203 489.951 261.408 452.11 250.396C379.826 229.36 219.066 380.327 214.11 385.398C209.154 390.467 90.3591 500.394 75.6088 485.893C60.8585 471.392 82.6521 436.732 155.109 327.393C342.969 43.9093 380.007 33.2262 415.111 32.3936ZM408.111 294.894C485.039 259.254 490.458 283.353 353.11 381.395C219.248 478.739 314.422 342.862 408.111 294.894Z" transform="translate(1115.1946 223.60693)" id="path_3" />
    <path d="M1122.3 73.1264C1122.22 76.5472 1029.92 57.2123 917.796 46.6263C834.242 38.7375 739.153 39.1151 665.795 39.1263C585.86 40.5873 461.212 57.188 400.294 73.1264C170.588 130.252 -68.622 268.217 121.795 342.128C126.352 355.401 59.754 343.183 23.2936 306.626C-4.19018 279.07 -11.1449 234.873 23.2937 193.127C103.419 96.0014 325.171 20.8762 467.296 10.1261C609.42 -0.623943 672.174 -5.87396 833.297 10.1261C994.421 26.1262 1122.7 56.1099 1122.3 73.1264Z" transform="translate(66 117.87427)" id="path_4" />
  </defs>
  <path d="M409.9 197C409.9 197 148.112 361.393 173.898 764C170.219 973.75 70.8975 1037 70.8975 1037C70.8975 1037 134.064 922.564 133.898 857.5C133.731 792.437 126.82 753.89 109.398 733C91.9756 712.11 52.3458 669.492 1.39718 714C-4.35522 712.11 7.24124 672.711 43.8972 675C80.5533 677.289 116.745 697.839 139.897 721C114.425 679.023 90.2413 661.358 37.8971 656C85.5532 649.266 116.163 666.305 139.897 685.5C92.0721 612.034 95.108 560.432 109.398 519.5C126.898 557.467 133.898 566 133.898 566C133.898 566 136.555 379.33 173.898 331C176.837 375.33 196.397 403.5 196.397 403.5C196.397 403.5 173.746 280.982 251.897 216.5C278.672 192.844 361.897 158.522 401.397 127.5C453.742 87.3039 478.897 0 478.897 0C478.897 0 536.958 44.7248 506.898 127.5C476.837 210.275 454.701 221.139 448.397 227.5C442.093 233.861 432.713 239.337 425.397 244.5C431.965 245.348 433.656 244.811 435.897 244.5C438.138 244.189 468.252 241.001 492.897 232C448.041 284.582 401.679 334.317 365.897 361C392.285 346.921 418.628 327.963 448.397 324.5C395.468 437.166 326.336 502.637 309.897 519.5C343.311 506.451 367.059 478.225 377.397 471.5C358.409 547.18 340.412 592.661 309.897 624.5C279.382 656.338 185.187 734.405 183.897 776C181.206 722.034 172.907 608.964 236.897 458C300.888 307.036 409.9 197 409.9 197Z" transform="translate(1433.5693 52)" id="New-shape-6" fill="#FB3719" fill-rule="evenodd" stroke="none" filter="url(#filter_1)" />
  <path d="M237.79 197.001C237.79 197.001 -23.999 361.394 1.78712 764.001C-5.34074 550.762 24.2866 403.501 24.2866 403.501C24.2866 403.501 1.63503 280.982 79.7868 216.5C106.562 192.845 189.787 158.522 229.288 127.5C281.633 87.3041 306.788 0 306.788 0C306.788 0 364.848 44.7249 334.788 127.5C304.728 210.276 282.592 221.14 276.288 227.5C269.984 233.861 260.603 239.338 253.287 244.5C259.855 245.348 261.547 244.811 263.788 244.5C266.029 244.19 296.143 241.002 320.788 232C275.932 284.583 229.57 334.318 193.787 361.001C137.416 391.749 0.795728 608.965 64.7865 458.001C128.777 307.037 237.79 197.001 237.79 197.001Z" transform="translate(1605.6787 52)" id="New-shape-13" fill="url(#gradient_1)" fill-rule="evenodd" stroke="none" filter="url(#filter_1)" />
  <path d="M42.0991 0C42.0991 0 41.9343 41.8166 65.5182 74.0004C89.1022 106.184 65.5183 184.501 65.5183 184.501C65.5183 184.501 38.6544 283.025 39.4442 349.986C33.5894 303.863 -4.01437 291.452 0.351821 238.501C7.0324 33.2762 42.0991 0 42.0991 0Z" transform="translate(1565.7579 383.0005)" id="New-shape-7" fill="url(#gradient_2)" fill-rule="evenodd" stroke="none" filter="url(#filter_2)" />
  <g id="New-shape-2" filter="url(#filter_3)">
    <use stroke="none" fill="url(#gradient_3)" xlink:href="#path_1" fill-rule="evenodd" filter="url(#filter_4)" />
  </g>
  <g id="New-shape-4" filter="url(#filter_3)">
    <use stroke="none" fill="url(#gradient_3)" xlink:href="#path_2" fill-rule="evenodd" filter="url(#filter_4)" />
  </g>
  <g id="New-shape-5-Difference" filter="url(#filter_3)">
    <use stroke="none" fill="url(#gradient_3)" xlink:href="#path_3" fill-rule="evenodd" filter="url(#filter_4)" />
  </g>
  <g id="New-shape-5" filter="url(#filter_3)">
    <use stroke="none" fill="url(#gradient_3)" xlink:href="#path_4" fill-rule="evenodd" filter="url(#filter_4)" />
  </g>
  <path d="M11.2501 0C11.2501 0 20.9401 26.7387 34.596 45.4C48.2519 64.0613 66.1404 73.3583 75 124.598C74.0494 175.112 75 227 75 227L40.6566 166.971C40.6566 166.971 -9.97793 89.8321 1.76764 35.311C5.59997 14.4975 11.2501 0 11.2501 0Z" transform="translate(1531.8535 569.9999)" id="New-shape-8" fill="url(#gradient_4)" fill-rule="evenodd" stroke="none" filter="url(#filter_2)" />
  <path d="M11.2501 0C11.2501 0 20.9401 26.7387 34.596 45.4C48.2519 64.0613 66.1404 73.3583 75 124.598C74.0494 175.112 75 227 75 227L40.6566 166.971C40.6566 166.971 -9.97793 89.8321 1.76764 35.311C5.59997 14.4975 11.2501 0 11.2501 0Z" transform="translate(1531.8535 569.9999)" id="New-shape-11" fill="url(#gradient_2)" fill-rule="evenodd" stroke="none" filter="url(#filter_5)" />
  <path d="M0 2.24838C0 2.24838 89.5015 -1.56135 134.001 136.248C134.378 131.476 137.969 105.484 134.001 86.2479C126.689 50.8062 102.084 13.8535 43.5 2.24842C18.8683 -2.8105 0 2.24838 0 2.24838Z" transform="translate(1472.1034 705.75146)" id="New-shape-9" fill="url(#gradient_5)" fill-rule="evenodd" stroke="none" filter="url(#filter_6)" />
  <path d="M0 315C44.6591 278.491 206.773 139.238 262 0C139.954 31.5504 7.61353 166.682 0 315Z" transform="translate(1623.1039 369.00024)" id="New-shape-12" fill="url(#gradient_6)" fill-rule="evenodd" stroke="none" filter="url(#filter_7)" />
  <path d="M202.41 0C202.41 0 174.693 136.393 89.591 199.801C12.1575 268.021 2.92482 310 2.92482 310C2.92482 310 -3.65603 237.926 2.92482 188.472C9.50568 139.018 56.784 83.3339 74.7195 69.5183C92.6551 55.7026 112.825 54.8939 133.693 50.4651C154.561 46.0364 202.41 0 202.41 0Z" transform="translate(1614.8162 516.9999)" id="New-shape-10" fill="url(#gradient_7)" fill-rule="evenodd" stroke="none" filter="url(#filter_8)" />
</svg>